<svg xmlns="http://www.w3.org/2000/svg" viewBox="0 0 46 46"><defs><style>.a{fill:#fff;opacity:0.01;}.b{fill:#36be7c;}</style></defs><g transform="translate(-630.524 -314.524)"><rect class="a" transform="translate(630.524 314.524)"/><path class="b" d="M105.067,297.03a2.58,2.58,0,0,1-2.526,2.625H75.6a2.58,2.58,0,0,1-2.526-2.625V274.282a2.58,2.58,0,0,1,2.526-2.625h26.945a2.58,2.58,0,0,1,2.526,2.625V297.03Zm11.3-23.013-7.3,4.721v13.833l7.251,4.684a1.834,1.834,0,0,0,1.159.4,1.647,1.647,0,0,0,1.589-1.7v-20.6a1.647,1.647,0,0,0-1.589-1.7,1.811,1.811,0,0,0-1.109.361Z" transform="translate(557.458 51.868)"/></g></svg>