<svg xmlns="http://www.w3.org/2000/svg" viewBox="0 0 54 54"><defs><style>.a{fill:#fff;opacity:0.01;}.b,.c,.d,.f{fill:none;}.b,.c,.d{stroke:#666;}.b{stroke-width:3px;}.c,.d{stroke-width:2px;}.d{stroke-linejoin:round;}.e{stroke:none;}</style></defs><path class="a" d="M35.1,0c5.495,0,8.2,0,11.1.9a11.612,11.612,0,0,1,6.9,6.9c.9,2.9.9,5.606.9,11.1V35.1c0,5.495,0,8.2-.9,11.1a11.612,11.612,0,0,1-6.9,6.9c-2.9.9-5.605.9-11.1.9H18.9c-5.494,0-8.2,0-11.1-.9A11.612,11.612,0,0,1,.9,46.2C0,43.3,0,40.595,0,35.1V18.9c0-5.494,0-8.2.9-11.1A11.612,11.612,0,0,1,7.8.9C10.7,0,13.406,0,18.9,0Z"/><g transform="translate(8 7)"><path class="b" d="M32.581,11.561a5.69,5.69,0,0,1,5.9,5.886c0,3.115-2.914,5.64-6.508,5.64H6.508C2.914,23.087,0,20.562,0,17.447a5.9,5.9,0,0,1,5.106-5.509c-.008-.124,0-.25,0-.376C6.285,8.1,7.819,6,11.726,6a4.985,4.985,0,0,1,3.391.823c1.272-3,4.507-4.595,8.41-4.595,5,0,9.054,3.513,9.054,7.847,0,.91.329.668,0,1.481Z" transform="translate(0 -2.233)"/><g transform="translate(0 23.836)"><g class="c" transform="translate(0 1.283)"><circle class="e" cx="3.006" cy="3.006" r="3.006"/><circle class="f" cx="3.006" cy="3.006" r="2.006"/></g><g class="c" transform="translate(4.81 8.498)"><ellipse class="e" cx="3.007" cy="3.001" rx="3.007" ry="3.001"/><ellipse class="f" cx="3.007" cy="3.001" rx="2.007" ry="2.001"/></g><g class="c" transform="translate(32.467 1.283)"><circle class="e" cx="3.006" cy="3.006" r="3.006"/><circle class="f" cx="3.006" cy="3.006" r="2.006"/></g><g class="c" transform="translate(28.859 8.498)"><circle class="e" cx="3.006" cy="3.006" r="3.006"/><circle class="f" cx="3.006" cy="3.006" r="2.006"/></g><g class="c" transform="translate(16.232 9.7)"><ellipse class="e" cx="3.007" cy="3.006" rx="3.007" ry="3.006"/><ellipse class="f" cx="3.007" cy="3.006" rx="2.007" ry="2.006"/></g><path class="c" d="M-286.825,492.673v10.892" transform="translate(306.064 -492.673)"/><path class="d" d="M-313.293,491.673v11.422h-4.553" transform="translate(327 -491.673)"/><path class="d" d="M-317.847,491.673v11.422h4.553" transform="translate(342.556 -491.673)"/><path class="d" d="M-327.453,491.673v4.592h-3.278" transform="translate(336.021 -491.673)"/><path class="d" d="M-330.731,491.673v4.592h3.278" transform="translate(360.644 -491.673)"/></g></g></svg>