<svg xmlns="http://www.w3.org/2000/svg" xmlns:xlink="http://www.w3.org/1999/xlink" viewBox="0 0 94 94"><defs><style>.a{fill:url(#a);}.b{fill:#fff;}</style><linearGradient id="a" x1="0.5" x2="0.5" y2="1" gradientUnits="objectBoundingBox"><stop offset="0" stop-color="#ffcb00"/><stop offset="1" stop-color="#ffa200"/></linearGradient></defs><g transform="translate(-328 -335)"><rect class="a" width="94" height="94" rx="47" transform="translate(328 335)"/><g transform="translate(257.979 264.979)"><path class="b" d="M123.875,350.751H138.4V328.159l-4.034-2.69-10.49,8.607v16.676Zm17.751,0H156.15V328.159l-6.993,5.648-7.531-3.765v20.71Zm17.751-25.282v25.282H173.9V325.738l-6.186-7.8Z" transform="translate(-31.598 -213.289)"/><path class="b" d="M94.428,114.6l7.8-6.455,15.062,8.876,17.751-16.407.269-.269,2.959,2.959,4.841-13.179-13.717,4.3,3.228,3.228-15.6,14.524-15.062-8.607-9.952,8.069a1.911,1.911,0,0,0,2.421,2.959Zm47.606,25.551H92.008a1.883,1.883,0,0,0,0,3.766h50.027a1.883,1.883,0,1,0,0-3.765Z"/></g></g></svg>