<svg xmlns="http://www.w3.org/2000/svg" xmlns:xlink="http://www.w3.org/1999/xlink" viewBox="0 0 94 94"><defs><style>.a{fill:url(#a);}.b{fill:#fff;}</style><linearGradient id="a" x1="0.5" x2="0.5" y2="1" gradientUnits="objectBoundingBox"><stop offset="0" stop-color="#4acd8c"/><stop offset="1" stop-color="#18c465"/></linearGradient></defs><g transform="translate(-563 -335)"><rect class="a" width="94" height="94" rx="47" transform="translate(563 335)"/><path class="b" d="M75.342,34.133H37.3a3.179,3.179,0,0,0-3.17,3.17V75.342a3.179,3.179,0,0,0,3.17,3.17H75.342a3.179,3.179,0,0,0,3.17-3.17V37.3a3.179,3.179,0,0,0-3.17-3.17ZM43.484,51.647l6.657-5.864a1.584,1.584,0,0,1,2.14,0l5.627,4.993,6.34-5.706H62.028a1.59,1.59,0,0,1-1.585-1.585A1.625,1.625,0,0,1,62.028,41.9h6.261a1.625,1.625,0,0,1,1.585,1.585v6.261a1.585,1.585,0,1,1-3.17,0V47.209L59.017,54.1a1.866,1.866,0,0,1-1.03.4,1.669,1.669,0,0,1-1.03-.4L51.33,49.111,45.783,54.1a1.608,1.608,0,0,1-2.219-.158,1.483,1.483,0,0,1-.4-1.109.983.983,0,0,1,.317-1.189Zm-1.03,8.876H60.681a1.585,1.585,0,1,1,0,3.17H42.454a1.585,1.585,0,1,1,0-3.17Zm27.736,10.3H42.454a1.585,1.585,0,1,1,0-3.17H70.191a1.585,1.585,0,1,1,0,3.17Z" transform="translate(553.677 325.678)"/></g></svg>