<svg xmlns="http://www.w3.org/2000/svg" viewBox="0 0 46 46"><defs><style>.a{fill:#fff;opacity:0.01;}.b{fill:#ff8019;}</style></defs><g transform="translate(-61 -461)"><rect class="a" transform="translate(61 461)"/><path class="b" d="M80.306,71.376a1.634,1.634,0,0,0-1.62-1.62H75.4a1.669,1.669,0,1,0,0,3.338h3.289a1.811,1.811,0,0,0,1.178-.491A1.984,1.984,0,0,0,80.306,71.376Zm-6.48-13.157a1.6,1.6,0,0,0,1.62,1.62h3.24a1.62,1.62,0,0,0,0-3.24h-3.24A1.573,1.573,0,0,0,73.826,58.219ZM113.2,38.582l-3.289-.1a1.634,1.634,0,0,0-1.62-1.62H78.735a1.634,1.634,0,0,0-1.62,1.62v3.191h1.62s3.289.295,3.289,3.289a3.2,3.2,0,0,1-3.338,3.289l-1.571.1.049,6.48h1.522a3.349,3.349,0,0,1,3.387,3.486s-.295,3.191-3.387,3.191H77.115l-.049,6.48h1.62a3.388,3.388,0,0,1-.1,6.775l-1.473-.1v3.289s1.866,4.909,4.762,4.909h31.468s1.522-.295,1.522-1.522V40.2S114.573,38.582,113.2,38.582ZM85.265,48.352h21.4V61.509h-21.4Zm24.645,31.223H81.976s-1.718-.589-1.718-1.718h28.032a1.634,1.634,0,0,0,1.62-1.62V39.957l1.718.589V78.053A1.521,1.521,0,0,1,109.909,79.575ZM75.4,46.683h3.289a1.62,1.62,0,0,0,0-3.24H75.4A1.645,1.645,0,0,0,73.973,45.9a1.648,1.648,0,0,0,1.424.785Zm27.148,4.958H89.389a.836.836,0,0,0,0,1.669h13.157a.835.835,0,1,0,0-1.669Zm0,4.909H89.389a.866.866,0,0,0-.736.393.843.843,0,0,0,0,.835.866.866,0,0,0,.736.393h13.157a.852.852,0,0,0,.785-.835A.887.887,0,0,0,102.545,56.55Zm0,0" transform="translate(-10.299 424.136)"/></g></svg>