<svg xmlns="http://www.w3.org/2000/svg" xmlns:xlink="http://www.w3.org/1999/xlink" viewBox="0 0 94 94"><defs><style>.a{fill:url(#a);}.b{fill:#fff;}</style><linearGradient id="a" x1="0.5" x2="0.5" y2="1" gradientUnits="objectBoundingBox"><stop offset="0" stop-color="#85a0ff"/><stop offset="1" stop-color="#5f81f5"/></linearGradient></defs><g transform="translate(-563 -504)"><rect class="a" width="94" height="94" rx="47" transform="translate(563 504)"/><g transform="translate(-1790.113 -412.876)"><path class="b" d="M38.515,45.6a9.823,9.823,0,1,1,9.823-9.823A9.835,9.835,0,0,1,38.515,45.6ZM36.4,30.212a1,1,0,0,0-1,1V38.1a1,1,0,0,0,1,1h7.193a1,1,0,1,0,0-2H37.4V31.21A1,1,0,0,0,36.4,30.212ZM32.008,45.6H3.929A3.933,3.933,0,0,1,0,41.671V6.289A3.93,3.93,0,0,1,3.926,2.363H7.857V5.111a3.929,3.929,0,1,0,7.857,0V2.363h1.966V5.115a3.929,3.929,0,1,0,7.857,0V2.363h1.977V5.115a3.929,3.929,0,1,0,7.857,0V2.363H39.3A3.936,3.936,0,0,1,43.23,6.293V24.965A11.679,11.679,0,0,0,33.737,25a1.845,1.845,0,0,0-.334-.034H9.823a1.97,1.97,0,0,0-1.966,1.969v.782a1.97,1.97,0,0,0,1.966,1.969H28.436a11.691,11.691,0,0,0-1.371,3.339H9.823a1.969,1.969,0,0,0-1.966,1.967v.781a1.97,1.97,0,0,0,1.966,1.969H26.909A11.805,11.805,0,0,0,32,45.6ZM9.823,16.9a1.968,1.968,0,0,0-1.966,1.966v.784a1.969,1.969,0,0,0,1.966,1.967H33.4a1.97,1.97,0,0,0,1.969-1.967v-.784A1.97,1.97,0,0,0,33.4,16.9ZM31.443,7.08h0a1.954,1.954,0,0,1-1.388-.575,1.982,1.982,0,0,1-.577-1.391V1.968a1.968,1.968,0,1,1,3.935,0V5.115A1.98,1.98,0,0,1,31.443,7.08Zm-9.827,0A1.968,1.968,0,0,1,19.65,5.115V1.968a1.968,1.968,0,1,1,3.935,0V5.115A1.981,1.981,0,0,1,21.616,7.08Zm-9.823,0h0A1.954,1.954,0,0,1,10.4,6.506a1.982,1.982,0,0,1-.577-1.391V1.968a1.968,1.968,0,1,1,3.935,0V5.115A1.98,1.98,0,0,1,11.793,7.08Z" transform="translate(2375.943 941.077)"/></g></g></svg>