<svg xmlns="http://www.w3.org/2000/svg" viewBox="0 0 46 46"><defs><style>.a{fill:#fff;opacity:0.01;}.b{fill:#36be7c;}</style></defs><g transform="translate(-61.236 -325.236)"><rect class="a" transform="translate(61.236 325.236)"/><g transform="translate(61.315 325.236)"><path class="b" d="M301.039,120.11a2.145,2.145,0,0,0,2.138-2.151v-4.3a2.145,2.145,0,1,0-4.28,0v4.3a2.145,2.145,0,0,0,2.142,2.151Zm-11.448,0a2.145,2.145,0,0,0,2.138-2.151v-4.3a2.145,2.145,0,1,0-4.28,0v4.3a2.145,2.145,0,0,0,2.142,2.151Zm-11.451,0a2.145,2.145,0,0,0,2.142-2.151v-4.3a2.145,2.145,0,1,0-4.28,0v4.3a2.144,2.144,0,0,0,2.138,2.151Z" transform="translate(-266.658 -111.372)"/><path class="b" d="M157.494,188.53h-5.049v2.151a4.287,4.287,0,1,1-8.573,0V188.53h-2.878v2.151a4.287,4.287,0,1,1-8.573,0V188.53h-2.882v2.151a4.287,4.287,0,1,1-8.573,0V188.53h-5.043a2.145,2.145,0,0,0-2.145,2.151v37.256a2.145,2.145,0,0,0,2.142,2.151h41.562a2.145,2.145,0,0,0,2.142-2.151V190.681a2.128,2.128,0,0,0-2.129-2.151Zm-32.615,31.2A1.474,1.474,0,0,1,123.4,221.2h-1.477a1.474,1.474,0,0,1-1.477-1.474v-.743a1.474,1.474,0,0,1,1.474-1.474h1.48a1.474,1.474,0,0,1,1.474,1.474v.743Zm0-8.137a1.474,1.474,0,0,1-1.477,1.477h-1.477a1.474,1.474,0,0,1-1.477-1.474v-.743a1.474,1.474,0,0,1,1.474-1.477h1.48a1.474,1.474,0,0,1,1.474,1.474v.743Zm0-8.134a1.474,1.474,0,0,1-1.477,1.474h-1.477a1.474,1.474,0,0,1-1.477-1.474v-.743a1.474,1.474,0,0,1,1.474-1.474h1.48a1.474,1.474,0,0,1,1.474,1.474v.743Zm28.1,16.272a1.474,1.474,0,0,1-1.474,1.474H130.053a1.474,1.474,0,0,1-1.477-1.474v-.743a1.474,1.474,0,0,1,1.474-1.474H151.5a1.474,1.474,0,0,1,1.477,1.474v.743Zm0-8.137a1.474,1.474,0,0,1-1.474,1.477H130.053a1.474,1.474,0,0,1-1.477-1.474v-.743a1.474,1.474,0,0,1,1.474-1.477H151.5a1.474,1.474,0,0,1,1.477,1.474v.743Zm0-8.134a1.474,1.474,0,0,1-1.474,1.474H130.053a1.474,1.474,0,0,1-1.477-1.474v-.743a1.474,1.474,0,0,1,1.474-1.474H151.5a1.474,1.474,0,0,1,1.477,1.474v.743Z" transform="translate(-113.778 -184.089)"/></g></g></svg>