<svg xmlns="http://www.w3.org/2000/svg" xmlns:xlink="http://www.w3.org/1999/xlink" viewBox="0 0 94 94"><defs><style>.a{fill:url(#a);}.b{fill:#fff;}</style><linearGradient id="a" x1="0.5" x2="0.5" y2="1" gradientUnits="objectBoundingBox"><stop offset="0" stop-color="#c283f8"/><stop offset="1" stop-color="#ac66eb"/></linearGradient></defs><g transform="translate(-93 -504)"><rect class="a" width="94" height="94" rx="47" transform="translate(93 504)"/><path class="b" d="M128.6,142.647a2.819,2.819,0,0,1,2.819,2.819v35.522a2.819,2.819,0,0,1-2.819,2.819H86.879a2.819,2.819,0,0,1-2.819-2.819V145.466a2.819,2.819,0,0,1,2.819-2.819H128.6ZM110.77,163.618H100.3v10.845l.153,0a10.707,10.707,0,0,0,10.321-10.665v-.176ZM97.964,151.139a10.863,10.863,0,0,0,0,21.716V162.009h10.473A10.684,10.684,0,0,0,97.964,151.139Zm28.525,16.6H115.776a1.269,1.269,0,1,0,0,2.537h10.713a1.269,1.269,0,1,0,0-2.537Zm0-5.92H115.776a1.269,1.269,0,1,0,0,2.537h10.713a1.269,1.269,0,1,0,0-2.537Zm0-5.92H115.776a1.269,1.269,0,1,0,0,2.537h10.713a1.269,1.269,0,1,0,0-2.537Z" transform="translate(32.258 387.773)"/></g></svg>