<svg xmlns="http://www.w3.org/2000/svg" xmlns:xlink="http://www.w3.org/1999/xlink" viewBox="0 0 94 94"><defs><style>.a{fill:url(#a);}.b{fill:#fff;}</style><linearGradient id="a" x1="0.5" x2="0.5" y2="1" gradientUnits="objectBoundingBox"><stop offset="0" stop-color="#ffcb00"/><stop offset="1" stop-color="#ffa200"/></linearGradient></defs><g transform="translate(-93 -673)"><rect class="a" width="94" height="94" rx="47" transform="translate(93 673)"/><g transform="translate(-2752.609 -725.342)"><path class="b" d="M47.682,42.046H3.592A3.6,3.6,0,0,1,0,38.454V3.593A3.6,3.6,0,0,1,3.592,0H47.682a3.6,3.6,0,0,1,3.592,3.593V38.454A3.6,3.6,0,0,1,47.682,42.046Zm-4.246-7.5a1.633,1.633,0,1,0,1.633,1.633A1.635,1.635,0,0,0,43.436,34.546Zm-5.879,0a1.633,1.633,0,1,0,1.633,1.633A1.635,1.635,0,0,0,37.557,34.546Zm-5.878,0a1.633,1.633,0,1,0,1.633,1.633A1.635,1.635,0,0,0,31.679,34.546ZM7.511,6.532a.981.981,0,0,0-.98.98V31.269a.981.981,0,0,0,.98.98H43.763a.981.981,0,0,0,.98-.98V7.512a.981.981,0,0,0-.98-.98Z" transform="translate(2866.972 1424.318)"/><path class="b" d="M25.136,13.333a.98.98,0,0,1-.98-.98V3.807l-2.73,3.466a.981.981,0,0,1-.77.373H17l-4.186,5.313a.98.98,0,0,1-1.75-.606V3.807L8.335,7.273a.981.981,0,0,1-.77.373H.98a.98.98,0,1,1,0-1.959H7.091L11.276.373a.98.98,0,0,1,1.749.607V9.526l2.73-3.465a.98.98,0,0,1,.77-.374h3.656L24.367.373a.98.98,0,0,1,1.749.607V9.526l2.73-3.466a.982.982,0,0,1,.77-.372H36.8a.98.98,0,0,1,0,1.96H30.092L25.906,12.96a.983.983,0,0,1-.77.373Z" transform="translate(2873.719 1437.309)"/></g></g></svg>