<svg xmlns="http://www.w3.org/2000/svg" viewBox="0 0 54 54"><defs><style>.a{fill:#fff;opacity:0.01;}.b{fill:#1890ff;}</style></defs><path class="a" d="M35.1,0c5.495,0,8.2,0,11.1.9a11.612,11.612,0,0,1,6.9,6.9c.9,2.9.9,5.606.9,11.1V35.1c0,5.495,0,8.2-.9,11.1a11.612,11.612,0,0,1-6.9,6.9c-2.9.9-5.605.9-11.1.9H18.9c-5.494,0-8.2,0-11.1-.9A11.612,11.612,0,0,1,.9,46.2C0,43.3,0,40.595,0,35.1V18.9c0-5.494,0-8.2.9-11.1A11.612,11.612,0,0,1,7.8.9C10.7,0,13.406,0,18.9,0Z"/><path class="b" d="M106.222,81.674l-15.6-16.62a4.975,4.975,0,0,0-7.31,0L67.7,81.674c-1.61,1.715-1.4,3.2-1.136,3.817a2.708,2.708,0,0,0,2.675,1.648h2.287V99.925c0,2.9,2.037,5.636,4.932,5.636H83.1V92.03c0-1.451-.215-2.259,1.233-2.259h5.25c1.448,0,1.233.808,1.233,2.259v13.531h6.643c2.895,0,4.932-2.733,4.932-5.636V87.139h2.287a2.708,2.708,0,0,0,2.675-1.648C107.625,84.873,107.832,83.389,106.222,81.674Z" transform="translate(-59.42 -57.562)"/></svg>