<svg xmlns="http://www.w3.org/2000/svg" viewBox="0 0 46.001 46"><defs><style>.a{fill:#fff;opacity:0.01;}.b{fill:#ffae00;}</style></defs><g transform="translate(-630.999 -325)"><rect class="a" transform="translate(631 325)"/><path class="b" d="M130.873,162.734H85.8a.46.46,0,0,1-.46-.46v-1.38a.46.46,0,0,1,.46-.46h45.078a.46.46,0,0,1,.46.46v1.38a.46.46,0,0,1-.46.46Zm-9.89-12.88h-9.2a.46.46,0,0,1-.46-.46v-1.38a.46.46,0,0,1,.46-.46h9.2a.46.46,0,0,1,.46.46v1.38A.46.46,0,0,1,120.984,149.854Zm8.51-29.324H87.175a.46.46,0,0,0-.46.46v35.879a.46.46,0,0,0,.46.46h42.318a.46.46,0,0,0,.46-.46V120.99A.46.46,0,0,0,129.493,120.53Zm-30.359,8.05a5.06,5.06,0,1,1-5.06,5.06A5.06,5.06,0,0,1,99.135,128.58ZM94.075,141.8a.46.46,0,0,1,.46-.46h9.2a.46.46,0,0,1,.46.46v1.38a.46.46,0,0,1-.46.46h-9.2a.46.46,0,0,1-.46-.46Zm28.067-4.459-.008.008v.013l-.864.864h-.014l-3.668,3.668a.459.459,0,0,1-.65,0l-.976-.976a.46.46,0,0,1,0-.65L118,138.231h-2.918l-11.441,11.441a.459.459,0,0,1-.371.19h-8.74a.46.46,0,0,1-.46-.46v-1.38a.46.46,0,0,1,.46-.46H102.5l11.441-11.441a.459.459,0,0,1,.371-.19h3.821l-2.173-2.173a.46.46,0,0,1,0-.651l.976-.976a.46.46,0,0,1,.651,0l4.553,4.554a.474.474,0,0,1,0,.661Z" transform="translate(545.664 206.368)"/></g></svg>