<svg xmlns="http://www.w3.org/2000/svg" viewBox="0 0 46 46"><defs><style>.a{fill:#fff;opacity:0.01;}.b{fill:#ffae00;}</style></defs><g transform="translate(-61.217 -315.217)"><rect class="a" transform="translate(61.217 315.217)"/><path class="b" d="M40.25,0A5.75,5.75,0,0,1,46,5.75v34.5A5.75,5.75,0,0,1,40.25,46H5.75A5.75,5.75,0,0,1,0,40.25V5.75A5.75,5.75,0,0,1,5.75,0ZM28.02,23H20.737l-6.362,8.927L23,34.089l-4.468,9.036L31.625,31,23,29.719ZM5.75,5.75v11.5h34.5V5.764ZM34.5,8.625v5.75H28.75V8.625Zm-8.625,0v5.75h-5.75V8.625Zm-8.625,0v5.75H11.5V8.625Z" transform="translate(61.217 315.217)"/></g></svg>