<svg xmlns="http://www.w3.org/2000/svg" viewBox="0 0 46.002 46"><defs><style>.a{fill:#fff;opacity:0.01;}.b{fill:#ff8019;}</style></defs><g transform="translate(-630.533 -460.534)"><rect class="a" transform="translate(630.534 460.534)"/><path class="b" d="M21902.535-887.468a23.024,23.024,0,0,1-23-23,23.027,23.027,0,0,1,23-23,23.027,23.027,0,0,1,23,23A23.024,23.024,0,0,1,21902.535-887.468Zm.158-30.275h-2.459l4.1,14.279h2.344l2.895-11.021h.082l2.9,11.022h2.322l4.121-14.279h-2.465l-2.779,11.115h-.076l-2.922-11.115h-2.279l-2.922,11.115h-.082Zm-11.279,7.555h0l5.8,6.723h2.922l-7.24-8.144,6.322-6.135h-2.762l-6.9,6.9v-6.9h-2.18v14.279h2.18v-4.941l1.859-1.782Z" transform="translate(-21249 1394)"/></g></svg>