<svg xmlns="http://www.w3.org/2000/svg" xmlns:xlink="http://www.w3.org/1999/xlink" viewBox="0 0 94 94"><defs><style>.a{fill:url(#a);}.b{fill:#fff;}</style><linearGradient id="a" x1="0.5" x2="0.5" y2="1" gradientUnits="objectBoundingBox"><stop offset="0" stop-color="#26d7f2"/><stop offset="1" stop-color="#1ab0ee"/></linearGradient></defs><g transform="translate(-328 -504)"><rect class="a" width="94" height="94" rx="47" transform="translate(328 504)"/><g transform="translate(351.512 529.048)"><path class="b" d="M40.878,0H6.142A4.614,4.614,0,0,0,1.536,4.584V39.319A4.6,4.6,0,0,0,6.12,43.9H40.855a4.6,4.6,0,0,0,4.584-4.584V4.584A4.548,4.548,0,0,0,40.878,0ZM27.521,31.782l-4.783,7.031a.7.7,0,0,1-1.256-.529l.815-4.21-2.2.176a.7.7,0,0,1-.661-1.036l3.548-6.458a.708.708,0,0,1,1.322.4c0,.11-.154,2.116-.4,3.681,1.3-.044,3.042-.11,3.042-.11a.74.74,0,0,1,.639.353.688.688,0,0,1-.066.705Zm-.639-9.808a3.4,3.4,0,0,0-.529-1.807l2.8-3.042a.708.708,0,0,0,0-.948.687.687,0,0,0-.948-.044L24.9,18.91a3.525,3.525,0,0,0-1.366-.287,3.382,3.382,0,0,0-3.372,3.35H6.87a16.618,16.618,0,1,1,33.236,0H26.882Z" transform="translate(0)"/><path class="b" d="M247.182,190.976a.7.7,0,0,0-.705.705v1.609a.705.705,0,0,0,1.411,0v-1.609A.7.7,0,0,0,247.182,190.976Zm6.9,1.719a.671.671,0,0,0-.948.264l-.815,1.411a.671.671,0,0,0,.264.948.647.647,0,0,0,.353.088.73.73,0,0,0,.617-.353l.815-1.411A.7.7,0,0,0,254.08,192.7Zm4.166,4.695-1.411.815a.714.714,0,0,0-.264.948.73.73,0,0,0,.617.353.7.7,0,0,0,.353-.088l1.411-.815a.714.714,0,0,0,.264-.948A.7.7,0,0,0,258.246,197.39Zm-20.5,1.212-1.411-.815a.7.7,0,0,0-.683,1.212l1.411.815a.647.647,0,0,0,.353.088.688.688,0,0,0,.331-1.3Zm3.548-5.422a.7.7,0,1,0-1.212.683l.815,1.411a.73.73,0,0,0,.617.353.7.7,0,0,0,.353-.088.714.714,0,0,0,.264-.948Z" transform="translate(-223.694 -182.755)"/></g></g></svg>