<svg xmlns="http://www.w3.org/2000/svg" viewBox="0 0 72 72"><defs><style>.a{fill:#10a6e3;}.b{fill:#fff;}</style></defs><g transform="translate(13246 -11625.78)"><path class="a" d="M5.2,0H66.8A5.2,5.2,0,0,1,72,5.2V66.8A5.2,5.2,0,0,1,66.8,72H5.2A5.2,5.2,0,0,1,0,66.8V5.2A5.2,5.2,0,0,1,5.2,0Z" transform="translate(-13246 11625.78)"/><path class="b" d="M5.1,25.1h6.628v3.342H5.1ZM38.587,41.711H14.937a3,3,0,0,1-3-3.021V28.446H41.582V38.689a3,3,0,0,1-3,3.021ZM41.608,25.1H11.942V14.835a3,3,0,0,1,3-3.021H38.587a3,3,0,0,1,3,3.021L41.608,25.1ZM46.7,48.424H38.241V45.082h6.786V38.369h3.316v8.4A1.659,1.659,0,0,1,46.7,48.424Zm-31.448,0H7.062A1.671,1.671,0,0,1,5.391,46.74v-8.4H8.707v6.709h6.521V48.42h.026ZM48.343,15.155H45.027V8.442H38.241V5.1H46.7a1.671,1.671,0,0,1,1.671,1.684v8.372Zm-39.636,0H5.391V6.784A1.671,1.671,0,0,1,7.062,5.1h8.192V8.442H8.707ZM41.689,25.1h6.735v3.342H41.689Z" transform="translate(-13236.762 11635.019)"/></g></svg>