<svg xmlns="http://www.w3.org/2000/svg" viewBox="0 0 46 46"><defs><style>.a{fill:#fff;opacity:0.01;}.b{fill:#459df7;}</style></defs><g transform="translate(-251 -461)"><rect class="a" transform="translate(251 461)"/><g transform="translate(123.001 292.89)"><path class="b" d="M291.776,341.333v20.444a5.111,5.111,0,0,1-5.111,5.111H256v2.555A2.555,2.555,0,0,0,258.555,372h30.665a5.111,5.111,0,0,0,5.111-5.111v-23A2.555,2.555,0,0,0,291.776,341.333Z" transform="translate(-120.333 -160.445)"/><path class="b" d="M168.887,201.332v-28.11a2.555,2.555,0,0,0-2.555-2.555H130.556A2.555,2.555,0,0,0,128,173.222v28.11a2.555,2.555,0,0,0,2.555,2.555h35.776a2.555,2.555,0,0,0,2.555-2.555Zm-35.776-12.777a8.918,8.918,0,0,1,8.305-8.867v2.555a6.312,6.312,0,0,0-4.293,10.222l-1.789,1.814A8.74,8.74,0,0,1,133.111,188.554Zm8.944,8.944a8.842,8.842,0,0,1-5.826-2.2l1.814-1.814a6.312,6.312,0,0,0,10.222-4.293h2.555a8.919,8.919,0,0,1-8.765,8.305Zm7.666-9.583h-7.027v-8.228A8.842,8.842,0,0,1,151,187.916Zm8.944,8.305H156.11V186h2.555Zm5.111,0h-2.555V180.888h2.555Z" transform="translate(0 0)"/></g></g></svg>