<svg xmlns="http://www.w3.org/2000/svg" viewBox="0 0 46.001 46"><defs><style>.a,.c{fill:#fff;}.a{opacity:0.01;}.b{fill:#ff8019;}</style></defs><g transform="translate(-441.749 -314.749)"><rect class="a" transform="translate(441.749 314.749)"/><g transform="translate(427.415 300.413)"><path class="b" d="M56.173,60.335h-37.7A4.143,4.143,0,0,1,14.336,56.2V18.475a4.143,4.143,0,0,1,4.139-4.139H56.2a4.143,4.143,0,0,1,4.139,4.139V56.2a4.164,4.164,0,0,1-4.162,4.139Z"/><path class="c" d="M189.926,512.651A6.078,6.078,0,1,1,196,506.573,6.091,6.091,0,0,1,189.926,512.651Zm0-10a3.95,3.95,0,1,0,3.95,3.95A3.957,3.957,0,0,0,189.926,502.647ZM169.918,508.8A6.078,6.078,0,1,1,176,502.718,6.091,6.091,0,0,1,169.918,508.8Zm0-10a3.95,3.95,0,1,0,3.95,3.95A3.957,3.957,0,0,0,169.918,498.792Z" transform="translate(-142.598 -460.026)"/><path class="c" d="M292.392,190.5V171.631a1.107,1.107,0,0,1,1.064-1.135,1.092,1.092,0,0,1,1.064,1.135V190.5m-12.132-15.4v-3.524a1.064,1.064,0,1,1,2.128,0v3.524m-12.132,11.849V171.678a1.07,1.07,0,1,1,2.128,0v15.278m20.008,13.173v1.017a1.082,1.082,0,1,1-2.129,0v-1.017m-7.875-15.018v16.177a1.107,1.107,0,0,1-1.064,1.135,1.092,1.092,0,0,1-1.064-1.135V185.112m-7.875,11.234v4.99a1.065,1.065,0,0,1-1.064,1.088,1.08,1.08,0,0,1-1.064-1.088v-4.99" transform="translate(-246.128 -148.947)"/><path class="c" d="M386.494,259.428a6.066,6.066,0,1,1,6.078-6.054A6.091,6.091,0,0,1,386.494,259.428Zm0-10a3.95,3.95,0,1,0,3.95,3.95A3.957,3.957,0,0,0,386.494,249.424Z" transform="translate(-349.17 -222.199)"/></g></g></svg>