<svg xmlns="http://www.w3.org/2000/svg" viewBox="0 0 54 54"><defs><style>.a{fill:#fff;opacity:0.01;}.b{fill:#666;}</style></defs><path class="a" d="M35.1,0c5.495,0,8.2,0,11.1.9a11.612,11.612,0,0,1,6.9,6.9c.9,2.9.9,5.606.9,11.1V35.1c0,5.495,0,8.2-.9,11.1a11.612,11.612,0,0,1-6.9,6.9c-2.9.9-5.605.9-11.1.9H18.9c-5.494,0-8.2,0-11.1-.9A11.612,11.612,0,0,1,.9,46.2C0,43.3,0,40.595,0,35.1V18.9c0-5.494,0-8.2.9-11.1A11.612,11.612,0,0,1,7.8.9C10.7,0,13.406,0,18.9,0Z"/><path class="b" d="M658,2836.73a9.324,9.324,0,0,1,6.965,2.637c1.589,1.724,2.366,4.255,2.311,7.522a2.923,2.923,0,0,0,1.383,2.54,2.36,2.36,0,0,1,.146,1.881,2.3,2.3,0,0,1-.87,1.453,2.911,2.911,0,0,0-2.262,1.684,11.508,11.508,0,0,1-3.189,4.263,2.9,2.9,0,0,0-.586.621,4.814,4.814,0,0,0-.978,3.608l.128.523.284.42a2.921,2.921,0,0,0,2.09,1.26,32.18,32.18,0,0,1,6,1.286,15.151,15.151,0,0,1,3.851,1.8,5.341,5.341,0,0,1,2,2.233v2.8H640.726v-2.8a5.355,5.355,0,0,1,2-2.237,15.149,15.149,0,0,1,3.851-1.8,32.17,32.17,0,0,1,6-1.286,2.911,2.911,0,0,0,2.086-1.252l.3-.455.116-.5a4.815,4.815,0,0,0-.981-3.6,2.929,2.929,0,0,0-.584-.619,11.5,11.5,0,0,1-3.19-4.263,2.894,2.894,0,0,0-2.232-1.677,2.211,2.211,0,0,1-.9-1.46,2.462,2.462,0,0,1,.123-1.864,2.939,2.939,0,0,0,1.406-2.557c-.055-3.267.722-5.8,2.312-7.523A9.327,9.327,0,0,1,658,2836.73m0-2.732a11.957,11.957,0,0,0-8.967,3.517c-2.083,2.258-3.1,5.427-3.034,9.422a.2.2,0,0,1-.095.174c-1.293.785-1.863,2.751-1.36,4.84.459,1.906,1.753,3.327,3.153,3.52a.2.2,0,0,1,.153.115,14.235,14.235,0,0,0,3.979,5.269.154.154,0,0,1,.04.041,2.539,2.539,0,0,1,.557,1.423.086.086,0,0,1-.013.029.19.19,0,0,1-.137.077,34.7,34.7,0,0,0-6.548,1.4,17.928,17.928,0,0,0-4.547,2.152,7.787,7.787,0,0,0-3.1,3.768l0,.01a1.523,1.523,0,0,0-.079.48v4.071a1.688,1.688,0,0,0,1.687,1.689h36.626A1.687,1.687,0,0,0,678,2874.31v-4.071a1.52,1.52,0,0,0-.079-.48l0-.01a7.792,7.792,0,0,0-3.1-3.768,17.927,17.927,0,0,0-4.546-2.152,34.7,34.7,0,0,0-6.548-1.4.189.189,0,0,1-.136-.077.091.091,0,0,1-.013-.029,2.539,2.539,0,0,1,.556-1.423.167.167,0,0,1,.04-.041,14.242,14.242,0,0,0,3.979-5.269.2.2,0,0,1,.153-.115c1.4-.193,2.694-1.613,3.154-3.52.5-2.09-.068-4.054-1.36-4.84a.2.2,0,0,1-.095-.174c.068-3.995-.952-7.163-3.034-9.422A11.96,11.96,0,0,0,658,2834" transform="translate(-631 -2827.998)"/></svg>