<svg xmlns="http://www.w3.org/2000/svg" viewBox="0 0 46 46"><defs><style>.a{fill:#fff;opacity:0.01;}.b{fill:#f75052;}</style></defs><g transform="translate(-251 -325)"><rect class="a" transform="translate(251 325)"/><g transform="translate(251.936 325.468)"><path class="b" d="M173.064,815.674H128v-5.007h45.064Z" transform="translate(-128 -770.61)"/><path class="b" d="M170.667,362.667h7.511V382.7h-7.511Z" transform="translate(-168.163 -348.897)"/><path class="b" d="M128,322.5a2.5,2.5,0,0,1,2.5-2.5h7.511a2.5,2.5,0,0,1,2.5,2.5v20.029a2.5,2.5,0,0,1-2.5,2.5H130.5a2.5,2.5,0,0,1-2.5-2.5V322.5Zm5.007,2.5v15.021h2.5V325.007Z" transform="translate(-128 -308.734)"/><path class="b" d="M448,170.667h7.511v31.295H448Z" transform="translate(-429.223 -168.163)"/><path class="b" d="M405.333,130.5a2.5,2.5,0,0,1,2.5-2.5h7.511a2.5,2.5,0,0,1,2.5,2.5V161.8a2.5,2.5,0,0,1-2.5,2.5h-7.511a2.5,2.5,0,0,1-2.5-2.5Zm5.007,2.5v26.287h2.5V133.007h-2.5Z" transform="translate(-389.06 -128)"/><path class="b" d="M725.333,490.667h7.511v12.518h-7.511Z" transform="translate(-690.283 -469.387)"/><path class="b" d="M682.667,450.5a2.5,2.5,0,0,1,2.5-2.5h7.511a2.5,2.5,0,0,1,2.5,2.5v12.518a2.5,2.5,0,0,1-2.5,2.5h-7.511a2.5,2.5,0,0,1-2.5-2.5Zm5.007,2.5v7.511h2.5v-7.511Z" transform="translate(-650.121 -429.224)"/></g></g></svg>